<svg width="281" height="49" viewBox="0 0 281 49" fill="none" xmlns="http://www.w3.org/2000/svg">
<g clip-path="url(#clip0_120_713)">
<path d="M6.09577 0.600098V20.1601H1.72777V0.600098H6.09577ZM175.253 0.600098L169.613 20.1601H165.197L161.693 7.8961L158.189 20.1601H153.773L148.133 0.600098H152.813L156.173 13.3921L159.533 0.600098H164.069L167.405 13.3441L170.789 0.600098H175.253ZM11.4238 48.6401C9.42377 48.6401 7.61577 48.1921 5.99977 47.2961C4.39977 46.4161 3.14377 45.2001 2.23177 43.6481C1.31977 42.0801 0.86377 40.3201 0.86377 38.3681C0.86377 36.4161 1.31977 34.6641 2.23177 33.1121C3.14377 31.5441 4.39977 30.3201 5.99977 29.4401C7.61577 28.5441 9.42377 28.0961 11.4238 28.0961C13.4238 28.0961 15.2238 28.5441 16.8238 29.4401C18.4398 30.3201 19.7038 31.5441 20.6158 33.1121C21.5278 34.6641 21.9838 36.4161 21.9838 38.3681C21.9838 40.3201 21.5278 42.0801 20.6158 43.6481C19.7038 45.2001 18.4398 46.4161 16.8238 47.2961C15.2238 48.1921 13.4238 48.6401 11.4238 48.6401ZM11.4238 44.7041C12.5918 44.7041 13.6478 44.4321 14.5918 43.8881C15.5358 43.3441 16.2718 42.5921 16.7998 41.6321C17.3438 40.6561 17.6158 39.5681 17.6158 38.3681C17.6158 37.1521 17.3438 36.0641 16.7998 35.1041C16.2718 34.1441 15.5358 33.3921 14.5918 32.8481C13.6478 32.3041 12.5918 32.0321 11.4238 32.0321C10.2558 32.0321 9.19977 32.3041 8.25577 32.8481C7.31177 33.3921 6.56777 34.1441 6.02377 35.1041C5.49577 36.0641 5.23177 37.1521 5.23177 38.3681C5.23177 39.5681 5.49577 40.6561 6.02377 41.6321C6.56777 42.5921 7.31177 43.3441 8.25577 43.8881C9.19977 44.4321 10.2558 44.7041 11.4238 44.7041ZM173.478 28.6001H180.99C182.67 28.6001 184.11 28.8961 185.31 29.4881C186.526 30.0801 187.454 30.9121 188.094 31.9841C188.734 33.0561 189.054 34.3121 189.054 35.7521C189.054 37.2081 188.734 38.4801 188.094 39.5681C187.454 40.6401 186.526 41.4721 185.31 42.0641C184.11 42.6561 182.67 42.9521 180.99 42.9521H177.846V48.1601H173.478V28.6001ZM180.798 39.0881C182.03 39.0881 182.982 38.8001 183.654 38.2241C184.342 37.6481 184.686 36.8241 184.686 35.7521C184.686 34.6801 184.342 33.8641 183.654 33.3041C182.982 32.7441 182.03 32.4641 180.798 32.4641H177.846V39.0881H180.798Z" fill="#888888"/>
<path d="M9.55615 0.599947H13.2041L22.9721 12.3599V0.359948H27.3401V19.9199H23.6921L13.9241 8.15995V20.1599H9.55615V0.599947ZM46.7745 4.46395H40.4145V20.1599H36.0465V4.46395H29.6865V0.599947H46.7745V4.46395ZM49.1186 0.599947H63.6626V4.39195H53.4866V8.37595H62.8226V12.1679H53.4866V16.3679H63.8786V20.1599H49.1186V0.599947ZM78.4539 20.1599L74.6619 13.9919H71.1819V20.1599H66.8139V0.599947H74.6859C76.3179 0.599947 77.7259 0.879948 78.9099 1.43995C80.0939 1.98395 80.9979 2.75995 81.6219 3.76795C82.2459 4.77595 82.5579 5.95195 82.5579 7.29595C82.5579 8.63995 82.2459 9.81595 81.6219 10.8239C81.0139 11.8159 80.1339 12.5839 78.9819 13.1279L83.5179 20.1599H78.4539ZM71.1819 10.1279H74.4939C75.6619 10.1279 76.5659 9.88795 77.2059 9.40795C77.8619 8.91195 78.1899 8.20795 78.1899 7.29595C78.1899 6.38395 77.8619 5.68795 77.2059 5.20795C76.5659 4.71195 75.6619 4.46395 74.4939 4.46395H71.1819V10.1279ZM85.5405 0.599947H89.1885L98.9565 12.3599V0.359948H103.325V19.9199H99.6765L89.9085 8.15995V20.1599H85.5405V0.599947ZM106.775 0.599947H121.319V4.39195H111.143V8.37595H120.479V12.1679H111.143V16.3679H121.535V20.1599H106.775V0.599947ZM140.454 4.46395H134.094V20.1599H129.726V4.46395H123.366V0.599947H140.454V4.46395ZM187.018 20.6399C185.018 20.6399 183.21 20.1919 181.594 19.2959C179.994 18.4159 178.738 17.1999 177.826 15.6479C176.914 14.0799 176.458 12.3199 176.458 10.3679C176.458 8.41595 176.914 6.66395 177.826 5.11195C178.738 3.54395 179.994 2.31995 181.594 1.43995C183.21 0.543948 185.018 0.0959473 187.018 0.0959473C189.018 0.0959473 190.818 0.543948 192.418 1.43995C194.034 2.31995 195.298 3.54395 196.21 5.11195C197.122 6.66395 197.578 8.41595 197.578 10.3679C197.578 12.3199 197.122 14.0799 196.21 15.6479C195.298 17.1999 194.034 18.4159 192.418 19.2959C190.818 20.1919 189.018 20.6399 187.018 20.6399ZM187.018 16.7039C188.186 16.7039 189.242 16.4319 190.186 15.8879C191.13 15.3439 191.866 14.5919 192.394 13.6319C192.938 12.6559 193.21 11.5679 193.21 10.3679C193.21 9.15195 192.938 8.06395 192.394 7.10395C191.866 6.14395 191.13 5.39195 190.186 4.84795C189.242 4.30395 188.186 4.03195 187.018 4.03195C185.85 4.03195 184.794 4.30395 183.85 4.84795C182.906 5.39195 182.162 6.14395 181.618 7.10395C181.09 8.06395 180.826 9.15195 180.826 10.3679C180.826 11.5679 181.09 12.6559 181.618 13.6319C182.162 14.5919 182.906 15.3439 183.85 15.8879C184.794 16.4319 185.85 16.7039 187.018 16.7039ZM211.813 20.1599L208.021 13.9919H204.541V20.1599H200.173V0.599947H208.045C209.677 0.599947 211.085 0.879948 212.269 1.43995C213.453 1.98395 214.357 2.75995 214.981 3.76795C215.605 4.77595 215.917 5.95195 215.917 7.29595C215.917 8.63995 215.605 9.81595 214.981 10.8239C214.373 11.8159 213.493 12.5839 212.341 13.1279L216.877 20.1599H211.813ZM204.541 10.1279H207.853C209.021 10.1279 209.925 9.88795 210.565 9.40795C211.221 8.91195 211.549 8.20795 211.549 7.29595C211.549 6.38395 211.221 5.68795 210.565 5.20795C209.925 4.71195 209.021 4.46395 207.853 4.46395H204.541V10.1279ZM223.268 0.599947V16.2959H233.036V20.1599H218.9V0.599947H223.268ZM235.236 0.599947H242.82C244.948 0.599947 246.804 1.01595 248.388 1.84795C249.972 2.66395 251.188 3.81595 252.036 5.30395C252.884 6.77595 253.308 8.47195 253.308 10.3919C253.308 12.3119 252.884 14.0159 252.036 15.5039C251.188 16.9759 249.972 18.1199 248.388 18.9359C246.804 19.7519 244.948 20.1599 242.82 20.1599H235.236V0.599947ZM242.892 16.2959C244.78 16.2959 246.26 15.7839 247.332 14.7599C248.404 13.7199 248.94 12.2639 248.94 10.3919C248.94 8.51995 248.404 7.06395 247.332 6.02395C246.26 4.98395 244.78 4.46395 242.892 4.46395H239.604V16.2959H242.892ZM24.5796 28.5999H32.0916C33.7716 28.5999 35.2116 28.8959 36.4116 29.4879C37.6276 30.0799 38.5556 30.9119 39.1956 31.9839C39.8356 33.0559 40.1556 34.3119 40.1556 35.7519C40.1556 37.2079 39.8356 38.4799 39.1956 39.5679C38.5556 40.6399 37.6276 41.4719 36.4116 42.0639C35.2116 42.6559 33.7716 42.9519 32.0916 42.9519H28.9476V48.1599H24.5796V28.5999ZM31.8996 39.0879C33.1316 39.0879 34.0836 38.7999 34.7556 38.2239C35.4436 37.6479 35.7876 36.8239 35.7876 35.7519C35.7876 34.6799 35.4436 33.8639 34.7556 33.3039C34.0836 32.7439 33.1316 32.4639 31.8996 32.4639H28.9476V39.0879H31.8996ZM42.5093 28.5999H57.0533V32.3919H46.8773V36.3759H56.2133V40.1679H46.8773V44.3679H57.2693V48.1599H42.5093V28.5999ZM71.8446 48.1599L68.0526 41.9919H64.5726V48.1599H60.2046V28.5999H68.0766C69.7086 28.5999 71.1166 28.8799 72.3006 29.4399C73.4846 29.9839 74.3886 30.7599 75.0126 31.7679C75.6366 32.7759 75.9486 33.9519 75.9486 35.2959C75.9486 36.6399 75.6366 37.8159 75.0126 38.8239C74.4046 39.8159 73.5246 40.5839 72.3726 41.1279L76.9086 48.1599H71.8446ZM64.5726 38.1279H67.8846C69.0526 38.1279 69.9566 37.8879 70.5966 37.4079C71.2526 36.9119 71.5806 36.2079 71.5806 35.2959C71.5806 34.3839 71.2526 33.6879 70.5966 33.2079C69.9566 32.7119 69.0526 32.4639 67.8846 32.4639H64.5726V38.1279ZM91.1415 44.3679H83.5575L82.1895 48.1599H77.6775L85.2615 28.5999H89.7975L97.3815 48.1599H92.5095L91.1415 44.3679ZM89.7975 40.5759L87.3495 33.7599L84.9015 40.5759H89.7975ZM112.493 32.4639H106.133V48.1599H101.765V32.4639H95.4053V28.5999H112.493V32.4639ZM119.205 28.5999V48.1599H114.837V28.5999H119.205ZM132.362 48.6399C130.362 48.6399 128.554 48.1919 126.938 47.2959C125.338 46.4159 124.082 45.1999 123.17 43.6479C122.258 42.0799 121.802 40.3199 121.802 38.3679C121.802 36.4159 122.258 34.6639 123.17 33.1119C124.082 31.5439 125.338 30.3199 126.938 29.4399C128.554 28.5439 130.362 28.0959 132.362 28.0959C134.362 28.0959 136.162 28.5439 137.762 29.4399C139.378 30.3199 140.642 31.5439 141.554 33.1119C142.466 34.6639 142.922 36.4159 142.922 38.3679C142.922 40.3199 142.466 42.0799 141.554 43.6479C140.642 45.1999 139.378 46.4159 137.762 47.2959C136.162 48.1919 134.362 48.6399 132.362 48.6399ZM132.362 44.7039C133.53 44.7039 134.586 44.4319 135.53 43.8879C136.474 43.3439 137.21 42.5919 137.738 41.6319C138.282 40.6559 138.554 39.5679 138.554 38.3679C138.554 37.1519 138.282 36.0639 137.738 35.1039C137.21 34.1439 136.474 33.3919 135.53 32.8479C134.586 32.3039 133.53 32.0319 132.362 32.0319C131.194 32.0319 130.138 32.3039 129.194 32.8479C128.25 33.3919 127.506 34.1439 126.962 35.1039C126.434 36.0639 126.17 37.1519 126.17 38.3679C126.17 39.5679 126.434 40.6559 126.962 41.6319C127.506 42.5919 128.25 43.3439 129.194 43.8879C130.138 44.4319 131.194 44.7039 132.362 44.7039ZM145.517 28.5999H149.165L158.933 40.3599V28.3599H163.301V47.9199H159.653L149.885 36.1599V48.1599H145.517V28.5999ZM191.408 28.5999H205.952V32.3919H195.776V36.3759H205.112V40.1679H195.776V44.3679H206.168V48.1599H191.408V28.5999ZM218.518 48.6399C216.518 48.6399 214.71 48.1919 213.094 47.2959C211.494 46.4159 210.238 45.1999 209.326 43.6479C208.414 42.0799 207.958 40.3199 207.958 38.3679C207.958 36.4159 208.414 34.6639 209.326 33.1119C210.238 31.5439 211.494 30.3199 213.094 29.4399C214.71 28.5439 216.518 28.0959 218.518 28.0959C220.518 28.0959 222.318 28.5439 223.918 29.4399C225.534 30.3199 226.798 31.5439 227.71 33.1119C228.622 34.6639 229.078 36.4159 229.078 38.3679C229.078 40.3199 228.622 42.0799 227.71 43.6479C226.798 45.1999 225.534 46.4159 223.918 47.2959C222.318 48.1919 220.518 48.6399 218.518 48.6399ZM218.518 44.7039C219.686 44.7039 220.742 44.4319 221.686 43.8879C222.63 43.3439 223.366 42.5919 223.894 41.6319C224.438 40.6559 224.71 39.5679 224.71 38.3679C224.71 37.1519 224.438 36.0639 223.894 35.1039C223.366 34.1439 222.63 33.3919 221.686 32.8479C220.742 32.3039 219.686 32.0319 218.518 32.0319C217.35 32.0319 216.294 32.3039 215.35 32.8479C214.406 33.3919 213.662 34.1439 213.118 35.1039C212.59 36.0639 212.326 37.1519 212.326 38.3679C212.326 39.5679 212.59 40.6559 213.118 41.6319C213.662 42.5919 214.406 43.3439 215.35 43.8879C216.294 44.4319 217.35 44.7039 218.518 44.7039ZM231.673 28.5999H239.185C240.865 28.5999 242.305 28.8959 243.505 29.4879C244.721 30.0799 245.649 30.9119 246.289 31.9839C246.929 33.0559 247.249 34.3119 247.249 35.7519C247.249 37.2079 246.929 38.4799 246.289 39.5679C245.649 40.6399 244.721 41.4719 243.505 42.0639C242.305 42.6559 240.865 42.9519 239.185 42.9519H236.041V48.1599H231.673V28.5999ZM238.993 39.0879C240.225 39.0879 241.177 38.7999 241.849 38.2239C242.537 37.6479 242.881 36.8239 242.881 35.7519C242.881 34.6799 242.537 33.8639 241.849 33.3039C241.177 32.7439 240.225 32.4639 238.993 32.4639H236.041V39.0879H238.993ZM253.971 28.5999V44.2959H263.739V48.1599H249.603V28.5999H253.971ZM265.939 28.5999H280.483V32.3919H270.307V36.3759H279.643V40.1679H270.307V44.3679H280.699V48.1599H265.939V28.5999Z" fill="white"/>
</g>
<defs>
<clipPath id="clip0_120_713">
<rect width="281" height="49" fill="white"/>
</clipPath>
</defs>
</svg>
