<svg width="137" height="263" viewBox="0 0 137 263" fill="none" xmlns="http://www.w3.org/2000/svg">
<path d="M0.615479 0.902222H136.384V105.049C136.384 110.31 134.97 115.193 132.142 119.7C129.313 124.207 125.504 127.903 120.715 130.788L71.3284 160.544L82.1901 195.505H124.505L89.6575 219.943L103.347 262.824L68.5 236.179L33.6526 262.824L47.3424 219.943L12.495 195.505H54.8098L65.6716 160.544L15.7195 131.354C10.9299 128.657 7.21522 124.961 4.57532 120.266C1.93542 115.571 0.615479 110.498 0.615479 105.049V0.902222ZM15.3238 15.6106V105.049C15.3238 107.877 16.0309 110.47 17.4451 112.827C18.8593 115.184 20.7921 117.117 23.2435 118.626L61.1458 140.801V15.6106H15.3238ZM121.676 15.6106H75.8541V140.801L113.756 118.626C116.208 117.117 118.141 115.184 119.555 112.827C120.969 110.47 121.676 107.877 121.676 105.049V15.6106Z" fill="url(#paint0_linear_87_49)" fill-opacity="0.6"/>
<defs>
<linearGradient id="paint0_linear_87_49" x1="68.5" y1="0.902222" x2="68.5" y2="262.824" gradientUnits="userSpaceOnUse">
<stop offset="0.40625" stop-color="#69F339"/>
<stop offset="0.875" stop-color="#0066FF"/>
<stop offset="1" stop-color="#0066FF"/>
</linearGradient>
</defs>
</svg>
