<svg width="354" height="259" viewBox="0 0 354 259" fill="none" xmlns="http://www.w3.org/2000/svg">
<path d="M172.902 258.623C169.562 258.623 165.682 258.033 161.452 256.313C144.552 249.453 130.652 228.093 120.072 192.783C78.1617 187.843 46.6117 172.833 26.0017 147.933C-9.33833 105.223 1.43167 49.8928 1.91167 47.5628C1.97167 47.2628 2.05167 46.9628 2.14167 46.6628C7.93167 27.9828 18.1117 15.6028 32.4117 9.86283C57.2317 -0.0871706 84.5017 14.8128 85.6417 15.4528C85.7517 15.5128 85.8617 15.5728 85.9717 15.6428C175.782 70.4728 224.132 76.4528 242.862 75.8728C237.652 55.6728 237.882 24.4928 264.182 2.21283C267.222 -0.36717 271.562 -0.72717 274.982 1.32283C278.402 3.36283 280.152 7.35283 279.332 11.2528C279.182 12.0328 275.642 32.1528 293.182 60.0228C299.212 63.1728 320.172 72.8628 342.972 69.0028C346.402 68.4128 349.872 69.8028 351.962 72.5728C354.052 75.3428 354.432 79.0628 352.942 82.2028C345.032 98.8328 319.262 125.343 276.322 113.693C267.642 129.323 243.322 165.163 192.912 188.963C198.342 200.853 205.752 221.613 200.552 237.893C197.942 246.043 192.442 252.293 184.612 255.973C183.042 256.783 178.802 258.633 172.902 258.633V258.623ZM140.112 194.343C150.782 226.593 161.852 236.043 167.882 238.783C172.192 240.743 175.132 239.793 175.892 239.483C176.182 239.283 176.132 239.353 176.572 239.153C179.822 237.653 181.742 235.513 182.792 232.223C186.892 219.413 176.162 196.193 172.082 189.063C170.752 186.743 170.482 183.953 171.352 181.423C172.212 178.893 174.122 176.853 176.592 175.823C240.902 149.063 262.782 99.2828 263.002 98.7828C264.952 94.2228 270.132 91.9628 274.782 93.6628C293.122 100.353 308.892 99.2328 321.652 90.3328C322.622 89.6528 323.542 88.9528 324.412 88.2428C300.572 86.2428 282.742 75.6128 281.782 75.0328C280.592 74.3128 279.582 73.3328 278.822 72.1728C269.632 58.1628 264.882 45.3728 262.522 34.9228C253.632 56.3528 263.312 78.4928 263.852 79.6928C264.902 82.0328 264.952 84.7228 263.972 87.1028C262.992 89.4828 261.082 91.3528 258.682 92.2628C253.452 94.2528 203.912 109.443 76.4817 31.7028C74.8117 30.8228 55.1617 20.8028 39.2917 27.2228C30.6117 30.7328 24.1717 38.9628 20.1217 51.6928C19.3017 56.3928 12.2217 102.183 40.5017 136.203C58.8017 158.223 88.0817 171.173 127.752 174.863C128.022 174.873 128.302 174.903 128.572 174.933C137.452 175.733 146.852 176.063 156.762 175.933C156.802 175.933 156.842 175.933 156.892 175.933C161.982 175.933 166.142 180.023 166.212 185.133C166.282 190.283 162.162 194.513 157.012 194.583C151.232 194.663 145.612 194.583 140.142 194.363L140.112 194.343Z" fill="url(#paint0_linear_27_7)" fill-opacity="0.6"/>
<path d="M65.9822 237.213C63.0422 237.213 60.8822 236.793 60.0322 236.593C51.4321 234.733 44.9321 229.803 41.2221 222.323C30.5121 200.733 47.4521 163.493 49.4221 159.313C51.6121 154.653 57.1721 152.653 61.8321 154.853C66.4921 157.053 68.4822 162.603 66.2922 167.263C59.9122 180.853 53.1121 204.343 57.9321 214.043C58.7721 215.723 60.1422 217.553 64.0422 218.383C64.1722 218.413 64.3122 218.443 64.4422 218.473C64.4422 218.473 69.0822 219.383 73.1922 215.933C76.9122 212.803 83.0222 203.723 82.1122 178.053C81.9322 172.903 85.9521 168.583 91.1021 168.403C96.2522 168.243 100.572 172.243 100.752 177.393C101.672 203.413 96.2622 221.333 84.6522 230.653C77.9422 236.043 70.8921 237.223 65.9921 237.223L65.9822 237.213Z" fill="url(#paint1_linear_27_7)" fill-opacity="0.6"/>
<path d="M141.051 191.473C137.841 191.473 134.711 189.813 132.981 186.833C99.5011 129.193 6.63105 86.5929 5.69105 86.1629C1.00105 84.0329 -1.07895 78.5129 1.05105 73.8229C3.17105 69.1329 8.70105 67.0529 13.3911 69.1729C17.4211 71.0029 112.611 114.623 149.111 177.463C151.701 181.913 150.181 187.623 145.731 190.213C144.261 191.073 142.641 191.473 141.061 191.473H141.051Z" fill="url(#paint2_linear_27_7)" fill-opacity="0.6"/>
<path d="M100.402 92.883C105.72 92.883 110.032 88.5715 110.032 83.253C110.032 77.9345 105.72 73.623 100.402 73.623C95.083 73.623 90.7715 77.9345 90.7715 83.253C90.7715 88.5715 95.083 92.883 100.402 92.883Z" fill="url(#paint3_linear_27_7)" fill-opacity="0.6"/>
<defs>
<linearGradient id="paint0_linear_27_7" x1="176.921" y1="0" x2="176.921" y2="258.633" gradientUnits="userSpaceOnUse">
<stop offset="0.40625" stop-color="#69F339"/>
<stop offset="0.875" stop-color="#0066FF"/>
<stop offset="1" stop-color="#0066FF"/>
</linearGradient>
<linearGradient id="paint1_linear_27_7" x1="176.921" y1="0" x2="176.921" y2="258.633" gradientUnits="userSpaceOnUse">
<stop offset="0.40625" stop-color="#69F339"/>
<stop offset="0.875" stop-color="#0066FF"/>
<stop offset="1" stop-color="#0066FF"/>
</linearGradient>
<linearGradient id="paint2_linear_27_7" x1="176.921" y1="0" x2="176.921" y2="258.633" gradientUnits="userSpaceOnUse">
<stop offset="0.40625" stop-color="#69F339"/>
<stop offset="0.875" stop-color="#0066FF"/>
<stop offset="1" stop-color="#0066FF"/>
</linearGradient>
<linearGradient id="paint3_linear_27_7" x1="176.921" y1="0" x2="176.921" y2="258.633" gradientUnits="userSpaceOnUse">
<stop offset="0.40625" stop-color="#69F339"/>
<stop offset="0.875" stop-color="#0066FF"/>
<stop offset="1" stop-color="#0066FF"/>
</linearGradient>
</defs>
</svg>
